<?xml version="1.0" encoding="UTF-8"?><svg id="a" xmlns="http://www.w3.org/2000/svg" viewBox="0 0 1000 1000"><defs><style>.ac,.ad{fill-rule:evenodd;}.ac,.ae{fill:#fbea26;}.ad{fill:#fff;}</style></defs><g id="b"><path id="c" class="ad" d="m60.11,597.3h-12.56l-8.21,35.96c-1.49,6.59-5.85,10.45-14.31,10.45-5.72,0-9.71-3.37-7.96-10.95l8.08-35.46h-12.57l-8.21,36.21c-1.12,5.47-.88,9.83,1.49,13.19,3.98,5.48,11.82,6.6,17.17,6.6,14.8,0,25.63-6.1,28.86-20.52l8.21-35.47Z"/><polygon id="d" class="ad" points="77.77 612.97 92.95 651.91 105.14 651.91 117.7 597.3 106.26 597.3 97.55 635.24 97.3 635.24 82.75 597.3 69.81 597.3 57.24 651.91 68.69 651.91 77.64 612.97 77.77 612.97"/><polygon id="e" class="ad" points="126.54 651.91 138.98 597.3 126.79 597.3 114.21 651.91 126.54 651.91"/><polygon id="f" class="ad" points="182.77 597.3 160.5 638.6 160.38 638.6 157.26 597.3 144.08 597.3 151.42 651.91 163.11 651.91 195.58 597.3 182.77 597.3"/><polygon id="g" class="ad" points="235.27 628.03 237.51 618.45 208.9 618.45 211.51 606.88 242.74 606.88 244.85 597.3 201.68 597.3 189.11 651.91 233.77 651.91 236.01 642.22 203.42 642.22 206.65 628.03 235.27 628.03"/><path id="h" class="ad" d="m241.99,651.91h12.07l4.98-21.39h12.69c9.08,0,8.83,2.86,7.21,10.32-1.37,5.6-1.49,8.46-1.24,11.07h13.56l.37-1.49c-2.37-.87-1.99-2.86-.13-10.82,2.36-10.2.13-11.94-4.36-13.93,6.35-1.74,10.7-6.97,12.07-12.95,1.12-4.72.75-15.43-14.93-15.43h-29.73l-12.56,54.62Zm19.04-30.6l3.35-14.56h15.43c7.22,0,7.59,4.23,6.97,7.09-1.25,5.35-4.85,7.47-11.33,7.47h-14.43Z"/><path id="i" class="ad" d="m300.21,635.12c-1.49,6.71-.5,18.17,21.03,18.17,5.1,0,23.51-1.38,27.25-17.8,2.24-9.82-4.36-12.94-12.07-14.68l-13.56-3.36c-2.37-.5-5.85-1.37-4.86-5.6,1.12-4.97,6.96-6.59,11.69-6.59,10.7,0,10.32,5.72,10.2,8.21h11.69c1.49-6.72-.87-17.67-18.78-17.67-19.16,0-25.13,10.7-26.5,16.8-2.74,12.07,5.97,14.06,14.93,16.05l6.09,1.37c5.85,1.37,10.07,2.49,9.08,6.84-1.37,5.72-8.08,7.1-13.94,7.1-10.7,0-11.07-5.85-10.45-8.83h-11.81Z"/><polygon id="j" class="ad" points="363.66 651.91 376.1 597.3 363.91 597.3 351.34 651.91 363.66 651.91"/><path id="k" class="ad" d="m373.36,651.91h25.5c19.4,0,28.24-16.92,30.98-28.61,2.36-10.33,1.86-26.01-18.05-26.01h-26l-12.44,54.62Zm22.4-45.16h11.82c5.23,0,13.19,1.25,9.45,17.42-1.99,8.96-7.47,18.29-17.55,18.29h-11.94l8.21-35.71Z"/><path id="l" class="ad" d="m445.76,640.59h21.65l1.24,11.33h13.31l-8.2-54.62h-14.18l-33.47,54.62h12.95l6.71-11.33Zm17.92-30.97h.12l2.37,21.52h-14.93l12.44-21.52Z"/><path id="m" class="ad" d="m488.06,651.91h25.51c19.41,0,28.36-16.92,30.97-28.61,2.38-10.33,1.88-26.01-17.91-26.01h-26.01l-12.56,54.62Zm22.39-45.16h11.82c5.23,0,13.31,1.25,9.59,17.42-2.12,8.96-7.59,18.29-17.54,18.29h-11.95l8.08-35.71Z"/><polygon id="n" class="ad" points="591.7 628.03 593.93 618.45 565.19 618.45 567.81 606.88 599.03 606.88 601.28 597.3 557.98 597.3 545.54 651.91 590.2 651.91 592.32 642.22 559.73 642.22 562.96 628.03 591.7 628.03"/><path id="o" class="ad" d="m635.74,632.14h14.18c15.8,0,21.52-12.45,22.77-17.42,2.36-10.7-2.99-17.42-14.31-17.42h-26.87l-12.56,54.62h12.31l4.47-19.78Zm2.24-9.33l3.61-16.05h9.82c7.59,0,10.21,2.12,9.08,7.46-.62,2.48-1.98,8.59-11.19,8.59h-11.32Z"/><path id="p" class="ad" d="m680.9,640.59h21.64l1.25,11.33h13.31l-8.21-54.62h-14.19l-33.46,54.62h12.94l6.72-11.33Zm17.91-30.97h.13l2.36,21.52h-15.05l12.56-21.52Z"/><path id="q" class="ad" d="m782.79,597.3h-12.44l-8.33,35.96c-1.49,6.59-5.72,10.45-14.18,10.45-5.73,0-9.71-3.37-7.97-10.95l8.08-35.46h-12.56l-8.33,36.21c-1,5.47-.88,9.83,1.61,13.19,3.99,5.48,11.71,6.6,17.18,6.6,14.8,0,25.63-6.1,28.86-20.52l8.09-35.47Z"/><polygon id="r" class="ad" points="793.12 597.3 780.54 651.91 822.1 651.91 824.47 641.96 795.1 641.96 805.43 597.3 793.12 597.3"/><polygon id="s" class="ad" points="840.15 651.91 852.71 597.3 840.4 597.3 827.95 651.91 840.15 651.91"/><path id="t" class="ad" d="m850.71,635.12c-1.62,6.71-.5,18.17,21.03,18.17,5.11,0,23.51-1.38,27.26-17.8,2.24-9.82-4.48-12.94-12.08-14.68l-13.55-3.36c-2.36-.5-5.97-1.37-4.97-5.6,1.12-4.97,7.09-6.59,11.82-6.59,10.7,0,10.32,5.72,10.07,8.21h11.82c1.5-6.72-.86-17.67-18.91-17.67-19.03,0-25,10.7-26.49,16.8-2.74,12.07,6.09,14.06,15.04,16.05l5.97,1.37c5.98,1.37,10.07,2.49,9.2,6.84-1.37,5.72-8.2,7.1-13.93,7.1-10.82,0-11.07-5.85-10.46-8.83h-11.81Z"/><polygon id="u" class="ad" points="927.85 651.91 938.05 606.88 955.84 606.88 958.08 597.3 910.18 597.3 908.07 606.88 925.74 606.88 915.53 651.91 927.85 651.91"/><path id="v" class="ad" d="m960.07,640.59h21.65l1.24,11.33h13.31l-8.21-54.62h-14.18l-33.47,54.62h12.95l6.72-11.33Zm17.91-30.97h.13l2.37,21.52h-14.93l12.44-21.52Z"/></g><g id="w"><path id="x" class="ac" d="m826.62,377.94l-21.79,45.21h53.9c4.66,0,7.57-.76,11.59-3.14,3.78-2.27,5.8-4.29,7.68-8.31l7.05-14.61c2.14-4.28,1.13-8.06-1.26-12.09-2.89-4.91-7.18-7.05-12.85-7.05h-44.33Zm-59.06-31.23h182.36c7.94,0,12.97,3.53,18,9.57,8.32,10.2,5.55,21.91,0,33.74l-18.63,39.55c-4.16,8.94-6.55,14.61-14.11,21.03-9.95,8.32-18.51,10.84-31.49,10.84h-117.5c-6.55,16.62-13.98,25.69-28.83,35.64-13.35,8.82-23.17,12.72-39.16,12.72h-26.96l76.31-163.08Z"/><path id="y" class="ae" d="m826.62,377.94l-21.79,45.21h53.9c4.66,0,7.57-.76,11.59-3.14,3.78-2.27,5.8-4.29,7.68-8.31l7.05-14.61c2.14-4.28,1.13-8.06-1.26-12.09-2.89-4.91-7.18-7.05-12.85-7.05h-44.33Zm-59.06-31.23h182.36c7.94,0,12.97,3.53,18,9.57,8.32,10.2,5.55,21.91,0,33.74l-18.63,39.55c-4.16,8.94-6.55,14.61-14.11,21.03-9.95,8.32-18.51,10.84-31.49,10.84h-117.5c-6.55,16.62-13.98,25.69-28.83,35.64-13.35,8.82-23.17,12.72-39.16,12.72h-26.96l76.31-163.08Z"/><path id="z" class="ac" d="m553.2,347.34h69.27l-53.26,114.73c-7.94,17-17,26.82-32.75,38.15-9.57,7.06-37.02,15.24-60.32,10.2l-44.32-86.01-17.26,37.65c-7.8,16.75-17.13,26.82-32.75,38.15-9.69,7.06-37.15,15.24-60.44,10.2l77.06-163.08h69.39l47.47,79.72,37.91-79.72Z"/><path id="aa" class="ac" d="m582.04,509.81l76.44-163.1h69.27l-53.27,114.73c-7.94,17-17.01,26.83-32.75,38.15-9.58,7.07-36.4,15.24-59.7,10.21h0Z"/><path id="ab" class="ac" d="m206.48,346.71h-72.54l-48.11,102.64c-7.43,15.49-7.81,29.22,4.41,43.96,13.6,16.24,41.69,22.92,70.66,22.92h52.64c26.45,0,43.83-4.91,64.23-21.66,12.59-10.46,18.77-18.39,25.69-33.12l53.28-114.73h-74.56l-39.16,82.87c-10.83,26.07-16.63,31.86-51.26,31.86-21.91,0-30.35-17.88-23.8-31.86l38.53-82.87Z"/></g></svg>